{
    "asset" : {
        "generator" : "Khronos glTF Blender I/O v1.8.19",
        "version" : "2.0"
    },
    "extensionsUsed" : [
        "KHR_materials_unlit"
    ],
    "scene" : 0,
    "scenes" : [
        {
            "name" : "Scene",
            "nodes" : [
                0
            ]
        }
    ],
    "nodes" : [
        {
            "mesh" : 0,
            "name" : "HexGrid",
            "translation" : [
                -9,
                0,
                10.392000198364258
            ]
        }
    ],
    "materials" : [
        {
            "doubleSided" : true,
            "extensions" : {
                "KHR_materials_unlit" : {}
            },
            "name" : "Grid",
            "pbrMetallicRoughness" : {
                "baseColorFactor" : [
                    1,
                    0.9681296348571777,
                    0.876108705997467,
                    1
                ],
                "metallicFactor" : 0,
                "roughnessFactor" : 0.9
            }
        }
    ],
    "meshes" : [
        {
            "name" : "Plane.007",
            "primitives" : [
                {
                    "attributes" : {
                        "POSITION" : 0,
                        "NORMAL" : 1
                    },
                    "indices" : 2,
                    "material" : 0
                }
            ]
        }
    ],
    "accessors" : [
        {
            "bufferView" : 0,
            "componentType" : 5126,
            "count" : 73776,
            "max" : [
                19.017677307128906,
                0,
                0.8876760601997375
            ],
            "min" : [
                -1.0176777839660645,
                0,
                -21.671676635742188
            ],
            "type" : "VEC3"
        },
        {
            "bufferView" : 1,
            "componentType" : 5126,
            "count" : 73776,
            "type" : "VEC3"
        },
        {
            "bufferView" : 2,
            "componentType" : 5125,
            "count" : 306402,
            "type" : "SCALAR"
        }
    ],
    "bufferViews" : [
        {
            "buffer" : 0,
            "byteLength" : 885312,
            "byteOffset" : 0
        },
        {
            "buffer" : 0,
            "byteLength" : 885312,
            "byteOffset" : 885312
        },
        {
            "buffer" : 0,
            "byteLength" : 1225608,
            "byteOffset" : 1770624
        }
    ],
    "buffers" : [
        {
            "byteLength" : 2996232,
            "uri" : "grid.bin"
        }
    ]
}
