{
    "asset" : {
        "generator" : "Khronos glTF Blender I/O v1.8.19",
        "version" : "2.0"
    },
    "extensionsUsed" : [
        "KHR_materials_unlit"
    ],
    "scene" : 0,
    "scenes" : [
        {
            "extras" : {
                "uuid" : "cfcdd124-31ef-4607-ab7d-71fe7db9cac2",
                "assets reported" : {}
            },
            "name" : "Scene",
            "nodes" : [
                12
            ]
        }
    ],
    "nodes" : [
        {
            "mesh" : 0,
            "name" : "Chamber.000",
            "translation" : [
                0,
                0.10000000149011612,
                -0.5
            ]
        },
        {
            "mesh" : 1,
            "name" : "Current.000",
            "translation" : [
                0,
                0.10000000149011612,
                -0.5
            ]
        },
        {
            "mesh" : 2,
            "name" : "Line.000"
        },
        {
            "children" : [
                0,
                1,
                2
            ],
            "name" : "Guide.000",
            "translation" : [
                0,
                0,
                -12
            ]
        },
        {
            "mesh" : 3,
            "name" : "Chamber.001",
            "translation" : [
                0,
                0.10000000149011612,
                -0.5
            ]
        },
        {
            "mesh" : 4,
            "name" : "Current.001",
            "translation" : [
                0,
                0.10000000149011612,
                -0.5
            ]
        },
        {
            "mesh" : 5,
            "name" : "Line.001"
        },
        {
            "children" : [
                4,
                5,
                6
            ],
            "name" : "Guide.001",
            "rotation" : [
                0,
                -0.866025447845459,
                0,
                0.4999999701976776
            ],
            "translation" : [
                10.392304420471191,
                0,
                6
            ]
        },
        {
            "mesh" : 6,
            "name" : "Chamber.002",
            "translation" : [
                0,
                0.10000000149011612,
                -0.5
            ]
        },
        {
            "mesh" : 7,
            "name" : "Current.002",
            "translation" : [
                0,
                0.10000000149011612,
                -0.5
            ]
        },
        {
            "mesh" : 8,
            "name" : "Line.002"
        },
        {
            "children" : [
                8,
                9,
                10
            ],
            "name" : "Guide.002",
            "rotation" : [
                0,
                -0.8660253882408142,
                0,
                -0.5000000596046448
            ],
            "translation" : [
                -10.392306327819824,
                0,
                5.999998569488525
            ]
        },
        {
            "children" : [
                3,
                7,
                11
            ],
            "name" : "Reticle"
        }
    ],
    "materials" : [
        {
            "doubleSided" : true,
            "extensions" : {
                "KHR_materials_unlit" : {}
            },
            "name" : "Color.000",
            "pbrMetallicRoughness" : {
                "baseColorFactor" : [
                    1,
                    0.32314303517341614,
                    0,
                    1
                ],
                "metallicFactor" : 0,
                "roughnessFactor" : 0.9
            }
        },
        {
            "doubleSided" : true,
            "extensions" : {
                "KHR_materials_unlit" : {}
            },
            "name" : "Color.001",
            "pbrMetallicRoughness" : {
                "baseColorFactor" : [
                    0,
                    0.3613063395023346,
                    1,
                    1
                ],
                "metallicFactor" : 0,
                "roughnessFactor" : 0.9
            }
        },
        {
            "doubleSided" : true,
            "extensions" : {
                "KHR_materials_unlit" : {}
            },
            "name" : "Color.002",
            "pbrMetallicRoughness" : {
                "baseColorFactor" : [
                    0.22696533799171448,
                    0.571124792098999,
                    0.11697078496217728,
                    1
                ],
                "metallicFactor" : 0,
                "roughnessFactor" : 0.9
            }
        },
        {
            "doubleSided" : true,
            "extensions" : {
                "KHR_materials_unlit" : {}
            },
            "name" : "Color.003",
            "pbrMetallicRoughness" : {
                "baseColorFactor" : [
                    0.964686393737793,
                    0.11697043478488922,
                    0.21223072707653046,
                    1
                ],
                "metallicFactor" : 0,
                "roughnessFactor" : 0.9
            }
        },
        {
            "doubleSided" : true,
            "extensions" : {
                "KHR_materials_unlit" : {}
            },
            "name" : "Color.004",
            "pbrMetallicRoughness" : {
                "baseColorFactor" : [
                    1,
                    0.8069519400596619,
                    0.12477201223373413,
                    1
                ],
                "metallicFactor" : 0,
                "roughnessFactor" : 0.9
            }
        },
        {
            "doubleSided" : true,
            "extensions" : {
                "KHR_materials_unlit" : {}
            },
            "name" : "Color.005",
            "pbrMetallicRoughness" : {
                "baseColorFactor" : [
                    0.24228093028068542,
                    0.0368892177939415,
                    0.4019775986671448,
                    1
                ],
                "metallicFactor" : 0,
                "roughnessFactor" : 0.9
            }
        }
    ],
    "meshes" : [
        {
            "name" : "Circle.001",
            "primitives" : [
                {
                    "attributes" : {
                        "POSITION" : 0,
                        "NORMAL" : 1,
                        "TEXCOORD_0" : 2
                    },
                    "indices" : 3,
                    "material" : 0
                }
            ]
        },
        {
            "name" : "Circle",
            "primitives" : [
                {
                    "attributes" : {
                        "POSITION" : 4,
                        "NORMAL" : 5,
                        "TEXCOORD_0" : 6
                    },
                    "indices" : 7,
                    "material" : 1
                }
            ]
        },
        {
            "name" : "Plane.002",
            "primitives" : [
                {
                    "attributes" : {
                        "POSITION" : 8,
                        "NORMAL" : 9,
                        "TEXCOORD_0" : 10
                    },
                    "indices" : 11,
                    "material" : 1
                }
            ]
        },
        {
            "name" : "Circle.007",
            "primitives" : [
                {
                    "attributes" : {
                        "POSITION" : 12,
                        "NORMAL" : 13,
                        "TEXCOORD_0" : 14
                    },
                    "indices" : 3,
                    "material" : 2
                }
            ]
        },
        {
            "name" : "Circle.006",
            "primitives" : [
                {
                    "attributes" : {
                        "POSITION" : 15,
                        "NORMAL" : 16,
                        "TEXCOORD_0" : 17
                    },
                    "indices" : 7,
                    "material" : 3
                }
            ]
        },
        {
            "name" : "Plane.008",
            "primitives" : [
                {
                    "attributes" : {
                        "POSITION" : 18,
                        "NORMAL" : 19,
                        "TEXCOORD_0" : 20
                    },
                    "indices" : 11,
                    "material" : 3
                }
            ]
        },
        {
            "name" : "Circle.009",
            "primitives" : [
                {
                    "attributes" : {
                        "POSITION" : 21,
                        "NORMAL" : 22,
                        "TEXCOORD_0" : 23
                    },
                    "indices" : 3,
                    "material" : 4
                }
            ]
        },
        {
            "name" : "Circle.008",
            "primitives" : [
                {
                    "attributes" : {
                        "POSITION" : 24,
                        "NORMAL" : 25,
                        "TEXCOORD_0" : 26
                    },
                    "indices" : 7,
                    "material" : 5
                }
            ]
        },
        {
            "name" : "Plane.009",
            "primitives" : [
                {
                    "attributes" : {
                        "POSITION" : 27,
                        "NORMAL" : 28,
                        "TEXCOORD_0" : 29
                    },
                    "indices" : 11,
                    "material" : 5
                }
            ]
        }
    ],
    "accessors" : [
        {
            "bufferView" : 0,
            "componentType" : 5126,
            "count" : 137,
            "max" : [
                0.8152948021888733,
                0,
                -0.02928932011127472
            ],
            "min" : [
                -0.8152948617935181,
                0,
                -0.9707106947898865
            ],
            "type" : "VEC3"
        },
        {
            "bufferView" : 1,
            "componentType" : 5126,
            "count" : 137,
            "type" : "VEC3"
        },
        {
            "bufferView" : 2,
            "componentType" : 5126,
            "count" : 137,
            "type" : "VEC2"
        },
        {
            "bufferView" : 3,
            "componentType" : 5123,
            "count" : 438,
            "type" : "SCALAR"
        },
        {
            "bufferView" : 4,
            "componentType" : 5126,
            "count" : 303,
            "max" : [
                0.866025447845459,
                0,
                0.9707106947898865
            ],
            "min" : [
                -0.866025447845459,
                0,
                -0.46160250902175903
            ],
            "type" : "VEC3"
        },
        {
            "bufferView" : 5,
            "componentType" : 5126,
            "count" : 303,
            "type" : "VEC3"
        },
        {
            "bufferView" : 6,
            "componentType" : 5126,
            "count" : 303,
            "type" : "VEC2"
        },
        {
            "bufferView" : 7,
            "componentType" : 5123,
            "count" : 984,
            "type" : "SCALAR"
        },
        {
            "bufferView" : 8,
            "componentType" : 5126,
            "count" : 4,
            "max" : [
                0.10000000149011612,
                0,
                1
            ],
            "min" : [
                -0.10000000149011612,
                0,
                -1.6292068139023286e-08
            ],
            "type" : "VEC3"
        },
        {
            "bufferView" : 9,
            "componentType" : 5126,
            "count" : 4,
            "type" : "VEC3"
        },
        {
            "bufferView" : 10,
            "componentType" : 5126,
            "count" : 4,
            "type" : "VEC2"
        },
        {
            "bufferView" : 11,
            "componentType" : 5123,
            "count" : 6,
            "type" : "SCALAR"
        },
        {
            "bufferView" : 12,
            "componentType" : 5126,
            "count" : 137,
            "max" : [
                0.8152948021888733,
                0,
                -0.02928932011127472
            ],
            "min" : [
                -0.8152948617935181,
                0,
                -0.9707106947898865
            ],
            "type" : "VEC3"
        },
        {
            "bufferView" : 13,
            "componentType" : 5126,
            "count" : 137,
            "type" : "VEC3"
        },
        {
            "bufferView" : 14,
            "componentType" : 5126,
            "count" : 137,
            "type" : "VEC2"
        },
        {
            "bufferView" : 15,
            "componentType" : 5126,
            "count" : 303,
            "max" : [
                0.866025447845459,
                0,
                0.9707106947898865
            ],
            "min" : [
                -0.866025447845459,
                0,
                -0.46160250902175903
            ],
            "type" : "VEC3"
        },
        {
            "bufferView" : 16,
            "componentType" : 5126,
            "count" : 303,
            "type" : "VEC3"
        },
        {
            "bufferView" : 17,
            "componentType" : 5126,
            "count" : 303,
            "type" : "VEC2"
        },
        {
            "bufferView" : 18,
            "componentType" : 5126,
            "count" : 4,
            "max" : [
                0.10000000149011612,
                0,
                1
            ],
            "min" : [
                -0.10000000149011612,
                0,
                -1.6292068139023286e-08
            ],
            "type" : "VEC3"
        },
        {
            "bufferView" : 19,
            "componentType" : 5126,
            "count" : 4,
            "type" : "VEC3"
        },
        {
            "bufferView" : 20,
            "componentType" : 5126,
            "count" : 4,
            "type" : "VEC2"
        },
        {
            "bufferView" : 21,
            "componentType" : 5126,
            "count" : 137,
            "max" : [
                0.8152948021888733,
                0,
                -0.02928932011127472
            ],
            "min" : [
                -0.8152948617935181,
                0,
                -0.9707106947898865
            ],
            "type" : "VEC3"
        },
        {
            "bufferView" : 22,
            "componentType" : 5126,
            "count" : 137,
            "type" : "VEC3"
        },
        {
            "bufferView" : 23,
            "componentType" : 5126,
            "count" : 137,
            "type" : "VEC2"
        },
        {
            "bufferView" : 24,
            "componentType" : 5126,
            "count" : 303,
            "max" : [
                0.866025447845459,
                0,
                0.9707106947898865
            ],
            "min" : [
                -0.866025447845459,
                0,
                -0.46160250902175903
            ],
            "type" : "VEC3"
        },
        {
            "bufferView" : 25,
            "componentType" : 5126,
            "count" : 303,
            "type" : "VEC3"
        },
        {
            "bufferView" : 26,
            "componentType" : 5126,
            "count" : 303,
            "type" : "VEC2"
        },
        {
            "bufferView" : 27,
            "componentType" : 5126,
            "count" : 4,
            "max" : [
                0.10000000149011612,
                0,
                1
            ],
            "min" : [
                -0.10000000149011612,
                0,
                -1.6292068139023286e-08
            ],
            "type" : "VEC3"
        },
        {
            "bufferView" : 28,
            "componentType" : 5126,
            "count" : 4,
            "type" : "VEC3"
        },
        {
            "bufferView" : 29,
            "componentType" : 5126,
            "count" : 4,
            "type" : "VEC2"
        }
    ],
    "bufferViews" : [
        {
            "buffer" : 0,
            "byteLength" : 1644,
            "byteOffset" : 0
        },
        {
            "buffer" : 0,
            "byteLength" : 1644,
            "byteOffset" : 1644
        },
        {
            "buffer" : 0,
            "byteLength" : 1096,
            "byteOffset" : 3288
        },
        {
            "buffer" : 0,
            "byteLength" : 876,
            "byteOffset" : 4384
        },
        {
            "buffer" : 0,
            "byteLength" : 3636,
            "byteOffset" : 5260
        },
        {
            "buffer" : 0,
            "byteLength" : 3636,
            "byteOffset" : 8896
        },
        {
            "buffer" : 0,
            "byteLength" : 2424,
            "byteOffset" : 12532
        },
        {
            "buffer" : 0,
            "byteLength" : 1968,
            "byteOffset" : 14956
        },
        {
            "buffer" : 0,
            "byteLength" : 48,
            "byteOffset" : 16924
        },
        {
            "buffer" : 0,
            "byteLength" : 48,
            "byteOffset" : 16972
        },
        {
            "buffer" : 0,
            "byteLength" : 32,
            "byteOffset" : 17020
        },
        {
            "buffer" : 0,
            "byteLength" : 12,
            "byteOffset" : 17052
        },
        {
            "buffer" : 0,
            "byteLength" : 1644,
            "byteOffset" : 17064
        },
        {
            "buffer" : 0,
            "byteLength" : 1644,
            "byteOffset" : 18708
        },
        {
            "buffer" : 0,
            "byteLength" : 1096,
            "byteOffset" : 20352
        },
        {
            "buffer" : 0,
            "byteLength" : 3636,
            "byteOffset" : 21448
        },
        {
            "buffer" : 0,
            "byteLength" : 3636,
            "byteOffset" : 25084
        },
        {
            "buffer" : 0,
            "byteLength" : 2424,
            "byteOffset" : 28720
        },
        {
            "buffer" : 0,
            "byteLength" : 48,
            "byteOffset" : 31144
        },
        {
            "buffer" : 0,
            "byteLength" : 48,
            "byteOffset" : 31192
        },
        {
            "buffer" : 0,
            "byteLength" : 32,
            "byteOffset" : 31240
        },
        {
            "buffer" : 0,
            "byteLength" : 1644,
            "byteOffset" : 31272
        },
        {
            "buffer" : 0,
            "byteLength" : 1644,
            "byteOffset" : 32916
        },
        {
            "buffer" : 0,
            "byteLength" : 1096,
            "byteOffset" : 34560
        },
        {
            "buffer" : 0,
            "byteLength" : 3636,
            "byteOffset" : 35656
        },
        {
            "buffer" : 0,
            "byteLength" : 3636,
            "byteOffset" : 39292
        },
        {
            "buffer" : 0,
            "byteLength" : 2424,
            "byteOffset" : 42928
        },
        {
            "buffer" : 0,
            "byteLength" : 48,
            "byteOffset" : 45352
        },
        {
            "buffer" : 0,
            "byteLength" : 48,
            "byteOffset" : 45400
        },
        {
            "buffer" : 0,
            "byteLength" : 32,
            "byteOffset" : 45448
        }
    ],
    "buffers" : [
        {
            "byteLength" : 45480,
            "uri" : "reticle.bin"
        }
    ]
}
